<?xml version="1.0" encoding="utf-8"?>
<!-- Generator: Adobe Illustrator 19.0.0, SVG Export Plug-In . SVG Version: 6.00 Build 0)  -->
<svg version="1.1" id="Layer_1" xmlns="http://www.w3.org/2000/svg" xmlns:xlink="http://www.w3.org/1999/xlink" x="0px" y="0px"
	 viewBox="0 0 841.9 595.3" style="enable-background:new 0 0 841.9 595.3;" xml:space="preserve">
<style type="text/css">
	.st0{fill:none;}
	.st1{fill:none;stroke:#231F20;stroke-width:0.3;stroke-linejoin:round;}
	.st2{fill:#FFFFFF;stroke:#231F20;stroke-miterlimit:10;}
	.st3{opacity:0.25;fill:url(#Diagonal_Lines);stroke:#231F20;stroke-miterlimit:10;}
	.st4{fill:#FFFFFF;stroke:#231F20;stroke-miterlimit:10;stroke-dasharray:2;}
	.st5{font-family:'MyriadPro-Regular';}
	.st6{font-size:6px;}
	.st7{font-size:9px;}
	.st8{fill:none;stroke:#231F20;stroke-miterlimit:10;}
	.st9{fill:#231F20;}
	.st10{fill:none;stroke:#231F20;stroke-miterlimit:10;stroke-dasharray:2,2;}
	.st11{fill:none;stroke:#231F20;stroke-miterlimit:10;stroke-dasharray:2.0207,2.0207;}
	.st12{font-size:8px;}
	.st13{opacity:0.23;fill:url(#Diagonal_Lines);stroke:#231F20;stroke-miterlimit:10;}
	.st14{fill:none;stroke:#231F20;stroke-miterlimit:10;stroke-dasharray:2.012,2.012;}
	.st15{font-size:7.5px;}
</style>
<pattern  width="72" height="72" patternUnits="userSpaceOnUse" id="Diagonal_Lines" viewBox="79.6 -148.6 72 72" style="overflow:visible;">
	<g>
		<polygon class="st0" points="79.6,-148.6 151.6,-148.6 151.6,-76.6 79.6,-76.6 		"/>
		<g>
			<line class="st1" x1="144.1" y1="-66.1" x2="162.1" y2="-84.1"/>
			<line class="st1" x1="144.1" y1="-60.1" x2="168.1" y2="-84.1"/>
			<line class="st1" x1="144.1" y1="-54.1" x2="174.1" y2="-84.1"/>
			<line class="st1" x1="144.1" y1="-48.1" x2="180.1" y2="-84.1"/>
			<line class="st1" x1="144.1" y1="-42.1" x2="186.1" y2="-84.1"/>
			<line class="st1" x1="144.1" y1="-36.1" x2="192.1" y2="-84.1"/>
			<line class="st1" x1="144.1" y1="-30.1" x2="198.1" y2="-84.1"/>
			<line class="st1" x1="144.1" y1="-24.1" x2="204.1" y2="-84.1"/>
			<line class="st1" x1="144.1" y1="-18.1" x2="210.1" y2="-84.1"/>
			<line class="st1" x1="144.1" y1="-12.1" x2="216.1" y2="-84.1"/>
			<line class="st1" x1="144.1" y1="-6.1" x2="222.1" y2="-84.1"/>
			<line class="st1" x1="144.1" y1="-0.1" x2="228.1" y2="-84.1"/>
			<line class="st1" x1="150.1" y1="-0.1" x2="228.1" y2="-78.1"/>
		</g>
		<g>
			<line class="st1" x1="72.1" y1="-66.1" x2="90.1" y2="-84.1"/>
			<line class="st1" x1="72.1" y1="-60.1" x2="96.1" y2="-84.1"/>
			<line class="st1" x1="72.1" y1="-54.1" x2="102.1" y2="-84.1"/>
			<line class="st1" x1="72.1" y1="-48.1" x2="108.1" y2="-84.1"/>
			<line class="st1" x1="72.1" y1="-42.1" x2="114.1" y2="-84.1"/>
			<line class="st1" x1="72.1" y1="-36.1" x2="120.1" y2="-84.1"/>
			<line class="st1" x1="72.1" y1="-30.1" x2="126.1" y2="-84.1"/>
			<line class="st1" x1="72.1" y1="-24.1" x2="132.1" y2="-84.1"/>
			<line class="st1" x1="72.1" y1="-18.1" x2="138.1" y2="-84.1"/>
			<line class="st1" x1="72.1" y1="-12.1" x2="144.1" y2="-84.1"/>
			<line class="st1" x1="72.1" y1="-6.1" x2="150.1" y2="-84.1"/>
			<line class="st1" x1="72.1" y1="-0.1" x2="156.1" y2="-84.1"/>
			<line class="st1" x1="78.1" y1="-0.1" x2="156.1" y2="-78.1"/>
		</g>
		<g>
			<line class="st1" x1="0.1" y1="-0.1" x2="84.1" y2="-84.1"/>
			<line class="st1" x1="6.1" y1="-0.1" x2="84.1" y2="-78.1"/>
		</g>
		<g>
			<line class="st1" x1="144.1" y1="-138.1" x2="162.1" y2="-156.1"/>
			<line class="st1" x1="144.1" y1="-132.1" x2="168.1" y2="-156.1"/>
			<line class="st1" x1="144.1" y1="-126.1" x2="174.1" y2="-156.1"/>
			<line class="st1" x1="144.1" y1="-120.1" x2="180.1" y2="-156.1"/>
			<line class="st1" x1="144.1" y1="-114.1" x2="186.1" y2="-156.1"/>
			<line class="st1" x1="144.1" y1="-108.1" x2="192.1" y2="-156.1"/>
			<line class="st1" x1="144.1" y1="-102.1" x2="198.1" y2="-156.1"/>
			<line class="st1" x1="144.1" y1="-96.1" x2="204.1" y2="-156.1"/>
			<line class="st1" x1="144.1" y1="-90.1" x2="210.1" y2="-156.1"/>
			<line class="st1" x1="144.1" y1="-84.1" x2="216.1" y2="-156.1"/>
			<line class="st1" x1="144.1" y1="-78.1" x2="222.1" y2="-156.1"/>
			<line class="st1" x1="144.1" y1="-72.1" x2="228.1" y2="-156.1"/>
			<line class="st1" x1="150.1" y1="-72.1" x2="228.1" y2="-150.1"/>
		</g>
		<g>
			<line class="st1" x1="72.1" y1="-138.1" x2="90.1" y2="-156.1"/>
			<line class="st1" x1="72.1" y1="-132.1" x2="96.1" y2="-156.1"/>
			<line class="st1" x1="72.1" y1="-126.1" x2="102.1" y2="-156.1"/>
			<line class="st1" x1="72.1" y1="-120.1" x2="108.1" y2="-156.1"/>
			<line class="st1" x1="72.1" y1="-114.1" x2="114.1" y2="-156.1"/>
			<line class="st1" x1="72.1" y1="-108.1" x2="120.1" y2="-156.1"/>
			<line class="st1" x1="72.1" y1="-102.1" x2="126.1" y2="-156.1"/>
			<line class="st1" x1="72.1" y1="-96.1" x2="132.1" y2="-156.1"/>
			<line class="st1" x1="72.1" y1="-90.1" x2="138.1" y2="-156.1"/>
			<line class="st1" x1="72.1" y1="-84.1" x2="144.1" y2="-156.1"/>
			<line class="st1" x1="72.1" y1="-78.1" x2="150.1" y2="-156.1"/>
			<line class="st1" x1="72.1" y1="-72.1" x2="156.1" y2="-156.1"/>
			<line class="st1" x1="78.1" y1="-72.1" x2="156.1" y2="-150.1"/>
			<line class="st1" x1="84.1" y1="-72.1" x2="156.1" y2="-144.1"/>
			<line class="st1" x1="90.1" y1="-72.1" x2="156.1" y2="-138.1"/>
			<line class="st1" x1="96.1" y1="-72.1" x2="156.1" y2="-132.1"/>
			<line class="st1" x1="102.1" y1="-72.1" x2="156.1" y2="-126.1"/>
			<line class="st1" x1="108.1" y1="-72.1" x2="156.1" y2="-120.1"/>
			<line class="st1" x1="114.1" y1="-72.1" x2="156.1" y2="-114.1"/>
			<line class="st1" x1="120.1" y1="-72.1" x2="156.1" y2="-108.1"/>
			<line class="st1" x1="126.1" y1="-72.1" x2="156.1" y2="-102.1"/>
			<line class="st1" x1="132.1" y1="-72.1" x2="156.1" y2="-96.1"/>
			<line class="st1" x1="138.1" y1="-72.1" x2="156.1" y2="-90.1"/>
			<line class="st1" x1="144.1" y1="-72.1" x2="156.1" y2="-84.1"/>
		</g>
		<g>
			<line class="st1" x1="0.1" y1="-72.1" x2="84.1" y2="-156.1"/>
			<line class="st1" x1="6.1" y1="-72.1" x2="84.1" y2="-150.1"/>
			<line class="st1" x1="12.1" y1="-72.1" x2="84.1" y2="-144.1"/>
			<line class="st1" x1="18.1" y1="-72.1" x2="84.1" y2="-138.1"/>
			<line class="st1" x1="24.1" y1="-72.1" x2="84.1" y2="-132.1"/>
			<line class="st1" x1="30.1" y1="-72.1" x2="84.1" y2="-126.1"/>
			<line class="st1" x1="36.1" y1="-72.1" x2="84.1" y2="-120.1"/>
			<line class="st1" x1="42.1" y1="-72.1" x2="84.1" y2="-114.1"/>
			<line class="st1" x1="48.1" y1="-72.1" x2="84.1" y2="-108.1"/>
			<line class="st1" x1="54.1" y1="-72.1" x2="84.1" y2="-102.1"/>
			<line class="st1" x1="60.1" y1="-72.1" x2="84.1" y2="-96.1"/>
			<line class="st1" x1="66.1" y1="-72.1" x2="84.1" y2="-90.1"/>
			<line class="st1" x1="72.1" y1="-72.1" x2="84.1" y2="-84.1"/>
		</g>
		<g>
			<line class="st1" x1="144.1" y1="-144.1" x2="228.1" y2="-228.1"/>
			<line class="st1" x1="150.1" y1="-144.1" x2="228.1" y2="-222.1"/>
		</g>
		<g>
			<line class="st1" x1="72.1" y1="-144.1" x2="156.1" y2="-228.1"/>
			<line class="st1" x1="78.1" y1="-144.1" x2="156.1" y2="-222.1"/>
			<line class="st1" x1="84.1" y1="-144.1" x2="156.1" y2="-216.1"/>
			<line class="st1" x1="90.1" y1="-144.1" x2="156.1" y2="-210.1"/>
			<line class="st1" x1="96.1" y1="-144.1" x2="156.1" y2="-204.1"/>
			<line class="st1" x1="102.1" y1="-144.1" x2="156.1" y2="-198.1"/>
			<line class="st1" x1="108.1" y1="-144.1" x2="156.1" y2="-192.1"/>
			<line class="st1" x1="114.1" y1="-144.1" x2="156.1" y2="-186.1"/>
			<line class="st1" x1="120.1" y1="-144.1" x2="156.1" y2="-180.1"/>
			<line class="st1" x1="126.1" y1="-144.1" x2="156.1" y2="-174.1"/>
			<line class="st1" x1="132.1" y1="-144.1" x2="156.1" y2="-168.1"/>
			<line class="st1" x1="138.1" y1="-144.1" x2="156.1" y2="-162.1"/>
			<line class="st1" x1="144.1" y1="-144.1" x2="156.1" y2="-156.1"/>
		</g>
		<g>
			<line class="st1" x1="0.1" y1="-144.1" x2="84.1" y2="-228.1"/>
			<line class="st1" x1="6.1" y1="-144.1" x2="84.1" y2="-222.1"/>
			<line class="st1" x1="12.1" y1="-144.1" x2="84.1" y2="-216.1"/>
			<line class="st1" x1="18.1" y1="-144.1" x2="84.1" y2="-210.1"/>
			<line class="st1" x1="24.1" y1="-144.1" x2="84.1" y2="-204.1"/>
			<line class="st1" x1="30.1" y1="-144.1" x2="84.1" y2="-198.1"/>
			<line class="st1" x1="36.1" y1="-144.1" x2="84.1" y2="-192.1"/>
			<line class="st1" x1="42.1" y1="-144.1" x2="84.1" y2="-186.1"/>
			<line class="st1" x1="48.1" y1="-144.1" x2="84.1" y2="-180.1"/>
			<line class="st1" x1="54.1" y1="-144.1" x2="84.1" y2="-174.1"/>
			<line class="st1" x1="60.1" y1="-144.1" x2="84.1" y2="-168.1"/>
			<line class="st1" x1="66.1" y1="-144.1" x2="84.1" y2="-162.1"/>
			<line class="st1" x1="72.1" y1="-144.1" x2="84.1" y2="-156.1"/>
		</g>
	</g>
</pattern>
<ellipse id="XMLID_1_" class="st2" cx="435.2" cy="296.7" rx="42.5" ry="11.1"/>
<ellipse id="XMLID_2_" class="st2" cx="305.5" cy="299.2" rx="42.5" ry="11.1"/>
<ellipse id="XMLID_3_" class="st2" cx="571.3" cy="324.9" rx="42.5" ry="11.1"/>
<ellipse id="XMLID_4_" class="st2" cx="434.5" cy="254.6" rx="42.5" ry="11.1"/>
<ellipse id="XMLID_5_" class="st2" cx="436.5" cy="340.8" rx="42.5" ry="11.1"/>
<ellipse id="XMLID_6_" class="st3" cx="305.3" cy="389.3" rx="42.5" ry="18.7"/>
<ellipse id="XMLID_7_" class="st2" cx="635.4" cy="369.7" rx="42.5" ry="11.1"/>
<ellipse id="XMLID_9_" class="st2" cx="433.9" cy="211.2" rx="42.5" ry="11.1"/>
<ellipse id="XMLID_10_" class="st4" cx="432.6" cy="169.3" rx="42.5" ry="11.1"/>
<text id="XMLID_8_" transform="matrix(1 0 0 1 275.7278 383.2361)"><tspan x="0" y="0" class="st5 st6">uberon:AnatomicalEntity</tspan><tspan x="0" y="7.2" class="st5 st6">                       V</tspan><tspan x="0" y="14.4" class="st5 st6">ncitPropertyOrAttribute</tspan></text>
<text id="XMLID_11_" transform="matrix(1 0 0 1 409.3336 298.7789)" class="st5 st7">dwc:Organism</text>
<text id="XMLID_12_" transform="matrix(1 0 0 1 400.8687 257.7455)" class="st5 st7">dwc:Identification</text>
<text id="XMLID_13_" transform="matrix(1 0 0 1 553.4373 327.0138)" class="st5 st7">dwc:Event</text>
<text id="XMLID_14_" transform="matrix(1 0 0 1 612.8374 371.8789)" class="st5 st7">dwc:Location</text>
<text id="XMLID_15_" transform="matrix(1 0 0 1 406.8414 343.0465)" class="st5 st7">dwc:Occurrence</text>
<text id="XMLID_16_" transform="matrix(1 0 0 1 285.1921 301.5041)" class="st5 st7">dsw:Token</text>
<text id="XMLID_17_" transform="matrix(1 0 0 1 413.5905 213.4614)" class="st5 st7">dwc:Taxon</text>
<text id="XMLID_18_" transform="matrix(1 0 0 1 401.6057 171.5526)" class="st5 st7">  nhc:TaxonRank</text>
<ellipse id="XMLID_20_" class="st2" cx="257.1" cy="340.8" rx="42.5" ry="11.1"/>
<text id="XMLID_19_" transform="matrix(1 0 0 1 227.4626 343.0679)" class="st5 st6">dwc:MeasurementOrFact</text>
<g id="XMLID_21_">
	<g id="XMLID_52_">
		<line id="XMLID_55_" class="st8" x1="266.2" y1="329.2" x2="278" y2="309.1"/>
		<g id="XMLID_53_">
			<polygon id="XMLID_54_" class="st9" points="278.4,311.7 277.8,309.4 275.5,310 276.2,308.7 278.6,308.1 279.2,310.5 			"/>
		</g>
	</g>
</g>
<g id="XMLID_22_">
	<g id="XMLID_81_">
		<line id="XMLID_105_" class="st8" x1="348.4" y1="299.2" x2="391.5" y2="296.8"/>
		<g id="XMLID_103_">
			<polygon id="XMLID_104_" class="st9" points="389.7,298.6 391.2,296.8 389.5,295.2 390.9,295.1 392.7,296.7 391.1,298.5 			"/>
		</g>
	</g>
</g>
<g id="XMLID_23_">
	<g id="XMLID_124_">
		<line id="XMLID_127_" class="st8" x1="527.8" y1="326.1" x2="479.2" y2="340.6"/>
		<g id="XMLID_125_">
			<polygon id="XMLID_126_" class="st9" points="525.4,325 527.5,326.2 526.4,328.3 527.7,327.9 528.9,325.8 526.8,324.6 			"/>
		</g>
	</g>
</g>
<g id="XMLID_24_">
	<g id="XMLID_92_">
		<line id="XMLID_154_" class="st8" x1="621.2" y1="358.2" x2="603.1" y2="333.2"/>
		<g id="XMLID_93_">
			<polygon id="XMLID_153_" class="st9" points="621.4,355.6 621,358 618.6,357.6 619.5,358.8 621.8,359.2 622.2,356.8 			"/>
		</g>
	</g>
</g>
<g id="XMLID_25_">
	<g id="XMLID_83_">
		<line id="XMLID_86_" class="st8" x1="436.4" y1="328.6" x2="435.2" y2="307.8"/>
		<g id="XMLID_84_">
			<polygon id="XMLID_85_" class="st9" points="438,326.5 436.4,328.3 434.6,326.7 434.7,328.1 436.5,329.7 438.1,327.9 			"/>
		</g>
	</g>
</g>
<g id="XMLID_26_">
	<g id="XMLID_77_">
		<line id="XMLID_97_" class="st10" x1="263.4" y1="352" x2="282" y2="372.9"/>
		<g id="XMLID_78_">
			<polygon id="XMLID_79_" class="st9" points="279.4,372.6 281.8,372.7 281.9,370.3 282.9,371.4 282.8,373.8 280.4,373.7 			"/>
		</g>
	</g>
</g>
<g id="XMLID_27_">
	<g id="XMLID_131_">
		<line id="XMLID_173_" class="st8" x1="315.2" y1="287.5" x2="395.5" y2="258.7"/>
		<g id="XMLID_132_">
			<polygon id="XMLID_167_" class="st9" points="317.6,288.4 315.4,287.4 316.5,285.2 315.1,285.7 314.1,287.9 316.3,288.9 			"/>
		</g>
	</g>
</g>
<g id="XMLID_28_">
	<g id="XMLID_120_">
		<line id="XMLID_144_" class="st10" x1="441.6" y1="286.6" x2="442.4" y2="267.8"/>
		<g id="XMLID_121_">
			<polygon id="XMLID_143_" class="st9" points="444,269.8 442.4,268.1 440.6,269.7 440.7,268.2 442.5,266.6 444.1,268.4 			"/>
		</g>
	</g>
</g>
<g id="XMLID_29_">
	<g id="XMLID_100_">
		<line id="XMLID_118_" class="st8" x1="432.7" y1="181.5" x2="433.9" y2="200.1"/>
		<g id="XMLID_101_">
			<polygon id="XMLID_102_" class="st9" points="431.1,183.6 432.7,181.8 434.5,183.3 434.4,181.9 432.6,180.3 431,182.1 			"/>
		</g>
	</g>
</g>
<g id="XMLID_30_">
	<g id="XMLID_156_">
		<line id="XMLID_166_" class="st8" x1="434" y1="223.4" x2="434" y2="224.4"/>
		<line id="XMLID_165_" class="st11" x1="434.1" y1="226.4" x2="434.5" y2="241.5"/>
		<line id="XMLID_164_" class="st8" x1="434.5" y1="242.5" x2="434.5" y2="243.5"/>
		<g id="XMLID_157_">
			<polygon id="XMLID_163_" class="st9" points="432.3,225.4 434,223.7 435.7,225.3 435.7,223.9 433.9,222.2 432.3,224 			"/>
		</g>
	</g>
</g>
<text id="XMLID_114_" transform="matrix(1.0701 0 0 1 291.8784 213.5645)" class="st9 st5 st12">nhc:belongsToTaxon</text>
<text id="XMLID_113_" transform="matrix(1.0686 -1.040914e-02 2.636000e-02 0.9997 363.5222 193.2141)" class="st9 st5 st12">nhc:hasTaxonRank</text>
<text id="XMLID_38_" transform="matrix(0.865 5.163990e-03 -1.732000e-02 0.9999 364.2477 279.47)" class="st9 st5 st12">dsw:hasIdentification</text>
<text id="XMLID_36_" transform="matrix(1.0699 -1.796664e-02 2.339000e-02 0.9997 491.8163 345.1715)" class="st9 st5 st12">dsw:atEvent</text>
<text id="XMLID_35_" transform="matrix(0.891 -3.287864e-03 8.058000e-02 0.9967 617.9627 345.9364)" class="st9 st5 st12">dsw:locatedAt</text>
<text id="XMLID_234_" transform="matrix(1.0701 0 0 1 506.4531 168.7195)" class="st9 st5 st12">skos:narrower</text>
<text id="XMLID_155_" transform="matrix(0.8574 -2.044518e-02 2.481000e-02 0.9997 439.6961 316.6019)" class="st9 st5 st12">dsw:hasOccurrence</text>
<ellipse id="XMLID_116_" class="st13" cx="579" cy="257.6" rx="42.5" ry="11.1"/>
<text id="XMLID_115_" transform="matrix(1 0 0 1 561.1182 259.6923)" class="st5 st7">foaf:Person</text>
<g id="XMLID_117_">
	<g id="XMLID_139_">
		<line id="XMLID_149_" class="st8" x1="476.5" y1="212.3" x2="477.4" y2="212.7"/>
		<line id="XMLID_148_" class="st14" x1="479.3" y1="213.6" x2="551.3" y2="247.2"/>
		<line id="XMLID_142_" class="st8" x1="552.2" y1="247.6" x2="553.1" y2="248"/>
		<g id="XMLID_140_">
			<polygon id="XMLID_141_" class="st9" points="550.6,248.7 552.9,247.9 552,245.6 553.3,246.2 554.2,248.5 551.9,249.3 			"/>
		</g>
	</g>
</g>
<g id="XMLID_68_">
	<g id="XMLID_107_">
		<line id="XMLID_110_" class="st8" x1="336.7" y1="306.6" x2="396.1" y2="336.3"/>
		<g id="XMLID_108_">
			<polygon id="XMLID_109_" class="st9" points="393.5,336.9 395.8,336.1 395.1,333.9 396.3,334.5 397.1,336.8 394.8,337.5 			"/>
		</g>
	</g>
</g>
<g id="XMLID_69_">
	<g id="XMLID_135_">
		<line id="XMLID_138_" class="st8" x1="474.7" y1="335.7" x2="556" y2="268.7"/>
		<g id="XMLID_136_">
			<polygon id="XMLID_137_" class="st9" points="555.5,271.3 555.7,268.9 553.4,268.7 554.5,267.8 556.9,268 556.6,270.4 			"/>
		</g>
	</g>
</g>
<g id="XMLID_70_">
	<g id="XMLID_67_">
		<line id="XMLID_111_" class="st8" x1="477.3" y1="254.3" x2="535.1" y2="257.8"/>
		<g id="XMLID_87_">
			<polygon id="XMLID_88_" class="st9" points="533,259.4 534.8,257.8 533.2,256 534.7,256.1 536.2,257.9 534.4,259.5 			"/>
		</g>
	</g>
</g>
<g id="XMLID_72_">
	<g id="XMLID_147_">
		<path id="XMLID_152_" class="st10" d="M392.4,205.6c-29.1-1.7-29,7.2-21,9c8.1,1.8,15.2,1.2,23.7,0.8"/>
		<g id="XMLID_150_">
			<polygon id="XMLID_151_" class="st9" points="390.5,203.8 392.1,205.6 390.3,207.2 391.8,207.3 393.5,205.7 391.9,203.9 			"/>
		</g>
	</g>
</g>
<g id="XMLID_71_">
	<g id="XMLID_169_">
		<path id="XMLID_172_" class="st8" d="M474.7,163.9c29.3-3.4,29.7,5.5,21.7,7.8c-8.1,2.2-15.2,2.1-23.9,2.2"/>
		<g id="XMLID_170_">
			<polygon id="XMLID_171_" class="st9" points="476.8,165.4 475,163.8 476.5,162 475.1,162.1 473.5,164 475.4,165.5 			"/>
		</g>
	</g>
</g>
<g id="XMLID_73_">
	<g id="XMLID_95_">
		<line id="XMLID_146_" class="st8" x1="616.1" y1="405.5" x2="630.3" y2="381.3"/>
		<g id="XMLID_128_">
			<polygon id="XMLID_129_" class="st9" points="618.6,404.6 616.3,405.2 615.7,402.9 614.9,404.1 615.5,406.5 617.9,405.9 			"/>
		</g>
	</g>
</g>
<ellipse id="XMLID_96_" class="st3" cx="581.8" cy="414.2" rx="42.5" ry="11.1"/>
<text id="XMLID_74_" transform="matrix(1 0 0 1 562.9133 417.1983)" class="st5 st7">gn:Feature</text>
<g id="XMLID_42_">
	<g id="XMLID_44_">
		<line id="XMLID_47_" class="st8" x1="429.9" y1="286.4" x2="430.7" y2="267.6"/>
		<g id="XMLID_45_">
			<polygon id="XMLID_46_" class="st9" points="432.3,269.6 430.7,267.9 428.9,269.5 429,268 430.8,266.4 432.4,268.2 			"/>
		</g>
	</g>
</g>
<ellipse id="XMLID_49_" class="st4" cx="536.8" cy="369.5" rx="42.5" ry="11.1"/>
<text id="XMLID_48_" transform="matrix(1 0 0 1 518.9517 371.6742)" class="st5 st7">nhc:Date</text>
<g id="XMLID_50_">
	<g id="XMLID_159_">
		<line id="XMLID_162_" class="st10" x1="547.1" y1="357.6" x2="557.8" y2="334.8"/>
		<g id="XMLID_160_">
			<polygon id="XMLID_161_" class="st9" points="549.5,356.5 547.3,357.4 546.5,355.1 545.8,356.4 546.7,358.7 548.9,357.8 			"/>
		</g>
	</g>
</g>
<text id="XMLID_61_" transform="matrix(0.891 -3.287864e-03 8.058000e-02 0.9967 554.7693 352.5226)" class="st9 st5 st12">nhc:verbatimDate</text>
<text id="XMLID_34_" transform="matrix(1.0701 0 0 1 200.4594 317.8571)" class="st9 st5 st12">dsw:derivedFrom</text>
<text id="XMLID_56_" transform="matrix(1.0701 0 0 1 282.2859 361.8832)" class="st9 st5 st12">nhc:measuresOrDescribes</text>
<text id="XMLID_32_" transform="matrix(1.0701 0 0 1 312.067 330.2972)" class="st9 st5 st12">dsw:evidenceFor</text>
<text id="XMLID_57_" transform="matrix(0.8926 0 0 1 346.3602 308.0407)" class="st9 st5 st15">dsw:derivedFrom</text>
<text id="XMLID_33_" transform="matrix(1.0701 0 0 1 451.0453 277.9547)" class="st9 st5 st12">ex:laterIdentification</text>
<text id="XMLID_41_" transform="matrix(1.0701 0 0 1 475.4116 249.0761)" class="st9 st5 st12">dwciri:identifiedBy</text>
<text id="XMLID_58_" transform="matrix(1.0701 0 0 1 507.9001 222.9048)" class="st9 st5 st12">nhc:scientificNameAuthorship</text>
<text id="XMLID_31_" transform="matrix(1.0701 0 0 1 376.1414 233.7343)" class="st9 st5 st12">dwciri:toTaxon</text>
<text id="XMLID_40_" transform="matrix(1.0701 0 0 1 318.3842 267.1252)" class="st9 st5 st12">dsw:isBasedOn</text>
<text id="XMLID_37_" transform="matrix(1.0701 0 0 1 532.2665 394.3716)" class="st9 st5 st12">dwciri:inDescribedPlace</text>
<text id="XMLID_39_" transform="matrix(1.0701 0 0 1 536.7787 295.1014)" class="st9 st5 st12">dwciri:recordedBy</text>
</svg>
